<?xml version="1.0" encoding="UTF-8" standalone="no"?>
<!-- Created with Inkscape (http://www.inkscape.org/) -->

<svg
   xmlns:dc="http://purl.org/dc/elements/1.1/"
   xmlns:cc="http://creativecommons.org/ns#"
   xmlns:rdf="http://www.w3.org/1999/02/22-rdf-syntax-ns#"
   xmlns:svg="http://www.w3.org/2000/svg"
   xmlns="http://www.w3.org/2000/svg"
   xmlns:sodipodi="http://sodipodi.sourceforge.net/DTD/sodipodi-0.dtd"
   xmlns:inkscape="http://www.inkscape.org/namespaces/inkscape"
   width="78.21093mm"
   height="15.569504mm"
   viewBox="0 0 78.21093 15.569504"
   version="1.1"
   id="svg8"
   inkscape:version="0.92.2 (5c3e80d, 2017-08-06)"
   sodipodi:docname="codingPiratesLogo.svg">
  <defs
     id="defs2" />
  <sodipodi:namedview
     id="base"
     pagecolor="#ffffff"
     bordercolor="#666666"
     borderopacity="1.0"
     inkscape:pageopacity="0.0"
     inkscape:pageshadow="2"
     inkscape:zoom="3.959798"
     inkscape:cx="141.76886"
     inkscape:cy="-3.8967187"
     inkscape:document-units="mm"
     inkscape:current-layer="text12"
     showgrid="false"
     fit-margin-top="0"
     fit-margin-left="0"
     fit-margin-right="0"
     fit-margin-bottom="0"
     inkscape:window-width="1920"
     inkscape:window-height="1017"
     inkscape:window-x="-8"
     inkscape:window-y="-8"
     inkscape:window-maximized="1" />
  <metadata
     id="metadata5">
    <rdf:RDF>
      <cc:Work
         rdf:about="">
        <dc:format>image/svg+xml</dc:format>
        <dc:type
           rdf:resource="http://purl.org/dc/dcmitype/StillImage" />
        <dc:title></dc:title>
      </cc:Work>
    </rdf:RDF>
  </metadata>
  <g
     inkscape:label="Layer 1"
     inkscape:groupmode="layer"
     id="layer1"
     transform="translate(0,-281.43049)">
    <g
       aria-label="Coding Pirates"
       style="font-style:normal;font-variant:normal;font-weight:normal;font-stretch:normal;font-size:16.05103493px;line-height:1.25;font-family:'Pirata One';-inkscape-font-specification:'Pirata One';letter-spacing:0px;word-spacing:0px;fill:#000000;fill-opacity:1;stroke:none;stroke-width:0.26458332"
       id="text12">
      <path
         d="m 2.2150428,283.30846 q -0.1605103,0 -0.2889186,0.16051 v 6.62908 q 0,0.67414 0.080255,1.09147 0.080255,0.40128 0.3531227,0.80255 0.5296842,0.77045 2.4237063,0.77045 v 0.46548 q -0.080255,0 -1.1877766,0.44943 -1.1075214,0.43338 -1.3482869,0.43338 -0.8025518,0 -1.52484833,-0.91491 Q 0,292.26494 0,291.23767 v -8.00946 q 0,-0.11236 1.829818,-0.7865 1.845869,-0.6902 2.1187366,-0.6902 0.096306,0 0.2247145,0.46548 0.1284083,0.46548 0.2889186,1.12357 0.1765614,0.6581 0.3531228,0.97912 0.1926124,0.30497 0.7062455,0.30497 v 0.32102 q -0.3531228,0.16051 -1.2038276,0.57784 -0.8346538,0.40127 -0.898858,0.40127 -0.2407655,0 -0.6099393,-1.30013 -0.3691738,-1.31619 -0.5938883,-1.31619 z"
         style="stroke-width:0.26458332"
         id="path14" />
      <path
         d="m 6.4893832,291.76736 v -5.32895 q 0,-0.11235 1.829818,-0.7865 1.8298178,-0.69019 2.1026858,-0.69019 0.272867,0 0.818603,0.65809 0.561786,0.65809 0.561786,1.18778 v 5.81047 q 0,0.12841 -1.765614,0.81861 -1.7495629,0.67414 -2.1508387,0.67414 -0.3852249,0 -0.898858,-0.6902 -0.4975821,-0.69019 -0.4975821,-1.65325 z m 2.744727,0.86675 q 0.3049697,0 0.6259904,-0.25681 v -4.73506 q 0,-1.18777 -0.8186028,-1.18777 -0.3210207,0 -0.6259904,0.24076 v 4.75111 q 0,1.18777 0.8186028,1.18777 z"
         style="stroke-width:0.26458332"
         id="path16" />
      <path
         d="m 16.435256,281.75151 q 0.433378,0 1.364338,2.10269 0.93096,2.10268 0.93096,2.90524 v 4.89556 q 0,0.36917 0.192613,0.7223 0.208663,0.35312 0.577837,0.40127 v 0.35313 q -0.112357,0.016 -1.749563,0.97911 -0.369174,-0.16051 -0.674143,-0.46548 -0.288919,-0.32102 -0.288919,-0.59389 -1.717461,1.05937 -2.006379,1.05937 -0.112358,0 -0.433378,-0.24077 -0.30497,-0.25681 -0.625991,-0.72229 -0.304969,-0.48153 -0.304969,-0.97912 v -5.73022 q 0,-0.16051 2.712625,-1.10752 -0.577838,-1.26803 -0.93096,-1.78166 -0.353123,-0.51363 -0.690195,-0.51363 h -0.529684 v -0.48154 q 1.781665,-0.80255 2.455808,-0.80255 z m -0.272867,10.8826 q 0.304969,0 0.62599,-0.25681 v -5.58576 q 0,-0.0963 -0.144459,-0.40128 -0.128409,-0.32102 -0.192613,-0.32102 -0.46548,0 -0.947011,0.28892 l -0.16051,0.0963 v 4.99187 q 0,1.18777 0.818603,1.18777 z"
         style="stroke-width:0.26458332"
         id="path18" />
      <path
         d="m 22.240715,286.05319 v 5.68207 q 0,0.97911 0.658092,1.10752 v 0.35312 l -1.621154,0.91491 q -0.353123,-0.14446 -0.658093,-0.46548 -0.30497,-0.33707 -0.30497,-0.62599 v -5.68207 q 0,-0.97911 -0.658092,-1.10752 v -0.35312 l 1.621155,-0.91491 q 0.353122,0.14446 0.658092,0.48153 0.30497,0.32102 0.30497,0.60994 z m -2.16689,-3.09785 v -0.97911 q 0,-0.0482 0.658092,-0.28892 0.674144,-0.25682 0.77045,-0.25682 0.112357,0 0.30497,0.27287 0.208663,0.27287 0.208663,0.56179 v 1.17172 q 0,0.0482 -0.642041,0.30497 -0.642042,0.24077 -0.786501,0.24077 -0.144459,0 -0.337072,-0.27287 -0.176561,-0.28892 -0.176561,-0.7544 z"
         style="stroke-width:0.26458332"
         id="path20" />
      <path
         d="m 23.857105,293.01934 v -5.4413 q 0,-0.52969 -0.224714,-0.91491 -0.224715,-0.38523 -0.561786,-0.38523 v -0.35312 q 0.112357,-0.0161 1.749562,-0.97911 0.112358,0.0321 0.272868,0.0963 0.16051,0.0482 0.417327,0.30497 0.272867,0.25682 0.272867,0.59389 0.09631,-0.0482 0.545736,-0.30497 1.187776,-0.67414 1.412491,-0.67414 0.513633,0 0.963062,0.67414 0.449429,0.67415 0.449429,1.23593 v 4.86347 q 0,0.8828 0.7865,1.04331 v 0.35313 l -1.749562,0.97911 q -0.353123,-0.14446 -0.658093,-0.46548 -0.304969,-0.33707 -0.304969,-0.62599 v -4.6548 q 0,-0.89886 -0.208664,-1.36434 -0.192612,-0.48153 -0.706245,-0.48153 l -0.529685,0.0963 v 5.12028 q 0,0.97911 0.658093,1.10752 v 0.35312 l -1.621155,0.91491 q -0.353122,-0.14446 -0.658092,-0.46548 -0.30497,-0.33707 -0.30497,-0.62599 z"
         style="stroke-width:0.26458332"
         id="path22" />
      <path
         d="m 30.754034,286.45447 q 0,-0.16051 1.765614,-0.81861 1.781665,-0.67414 2.182941,-0.67414 0.401276,0 0.882807,0.73835 0.481531,0.72229 0.481531,1.6051 v 5.10423 q 0,0.60994 -0.545736,1.73351 -0.545735,1.13962 -1.155674,1.99033 Q 33.755578,297 33.530863,297 q -0.401276,0 -1.075419,-0.24077 -0.674144,-0.24077 -1.155675,-0.48153 l -0.46548,-0.24077 v -0.48153 h 0.545735 q 0.625991,0 1.428543,-0.72229 0.802551,-0.70625 1.332235,-1.89403 -1.813767,0.85071 -2.086634,0.85071 -0.497582,0 -0.898858,-0.62599 -0.401276,-0.64204 -0.401276,-1.42854 z m 3.386768,1.39644 q 0,-1.4125 -0.738347,-1.4125 -0.385225,0 -0.706246,0.25682 v 3.69174 q 0,1.12357 0.353123,1.5088 0.353123,0.36917 1.09147,0.36917 z"
         style="stroke-width:0.26458332"
         id="path24" />
      <path
         d="m 42.649356,282.85903 q 1.765614,-1.07542 2.022431,-1.07542 0.256816,0 0.802552,0.6581 0.561786,0.65809 0.561786,1.18777 v 4.99188 q 0,0.11235 -1.284083,0.62599 -1.268032,0.51363 -2.102686,0.77045 v 1.62115 q 0,0.59389 0.128409,0.8507 0.128408,0.25682 0.529684,0.25682 v 0.49758 l -3.290462,1.38039 -0.256817,-0.51363 q 0.353123,0 0.674144,-0.41733 0.288918,-0.40127 0.288918,-1.21988 v -8.31443 q 0,-0.97912 -0.658092,-1.10752 v -0.35313 l 1.621154,-0.91491 q 0.321021,0.12841 0.642042,0.46548 0.32102,0.33708 0.32102,0.60994 z m 0.625991,0.46548 q -0.288919,0 -0.625991,0.24077 v 5.69812 q 0.417327,0 0.93096,-0.25682 0.513634,-0.27287 0.513634,-0.56179 v -3.9325 q 0,-1.18778 -0.818603,-1.18778 z"
         style="stroke-width:0.26458332"
         id="path26" />
      <path
         d="m 49.420887,286.05319 v 5.68207 q 0,0.97911 0.658092,1.10752 v 0.35312 l -1.621154,0.91491 q -0.353123,-0.14446 -0.658093,-0.46548 -0.30497,-0.33707 -0.30497,-0.62599 v -5.68207 q 0,-0.97911 -0.658092,-1.10752 v -0.35312 l 1.621155,-0.91491 q 0.353122,0.14446 0.658092,0.48153 0.30497,0.32102 0.30497,0.60994 z m -2.16689,-3.09785 v -0.97911 q 0,-0.0482 0.658092,-0.28892 0.674144,-0.25682 0.77045,-0.25682 0.112357,0 0.30497,0.27287 0.208663,0.27287 0.208663,0.56179 v 1.17172 q 0,0.0482 -0.642041,0.30497 -0.642042,0.24077 -0.786501,0.24077 -0.144459,0 -0.337072,-0.27287 -0.176561,-0.28892 -0.176561,-0.7544 z"
         style="stroke-width:0.26458332"
         id="path28" />
      <path
         d="m 50.250777,285.92478 1.765613,-0.96306 q 0.112358,0.0321 0.256817,0.0963 0.16051,0.0482 0.417327,0.30497 0.272867,0.25681 0.272867,0.57783 0.08026,-0.0321 0.754399,-0.49758 0.690195,-0.48153 0.882807,-0.48153 0.513633,0 0.963062,0.67414 0.449429,0.67415 0.449429,1.23593 v 0.7865 l -1.653257,0.93096 -0.272867,-0.22471 q 0,-1.34829 -0.256817,-1.5409 -0.288918,-0.20866 -0.866756,-0.20866 v 5.12028 q 0,0.97911 0.658093,1.10752 v 0.35312 l -1.621155,0.91491 q -0.353122,-0.14446 -0.658092,-0.46548 -0.30497,-0.33707 -0.30497,-0.62599 v -5.32894 q 0,-0.70625 -0.256816,-1.05937 -0.240766,-0.35313 -0.529684,-0.35313 z"
         style="stroke-width:0.26458332"
         id="path30" />
      <path
         d="m 61.154444,287.08046 v 4.54244 q 0,0.59389 0.192612,0.83465 0.192613,0.22472 0.593889,0.32102 v 0.35313 l -1.749563,0.97911 q -0.353123,-0.14446 -0.658093,-0.46548 -0.304969,-0.33707 -0.304969,-0.60994 l -2.00638,1.07542 q -0.04815,-0.0321 -0.144459,-0.0803 -0.09631,-0.0642 -0.337072,-0.24076 -0.224714,-0.19261 -0.401275,-0.40128 -0.481531,-0.52968 -0.481531,-1.20382 v -2.63237 q 0,-0.25682 0.834653,-0.6581 0.834654,-0.40127 1.669308,-0.65809 l 0.850705,-0.27287 q 0,-0.91491 -0.481531,-1.26803 -0.481531,-0.36917 -1.86192,-0.36917 v -0.48153 q 2.48791,-0.88281 2.79288,-0.88281 0.529684,0 1.011215,0.69019 0.481531,0.6902 0.481531,1.42855 z m -3.370717,4.52639 q 0,0.41732 0.240765,0.69019 0.256817,0.25682 0.561786,0.25682 0.30497,0 0.642042,-0.24077 v -3.62753 q -0.401276,0.14446 -0.609939,0.24077 -0.192613,0.0963 -0.417327,0.30496 -0.417327,0.38523 -0.417327,1.33224 z"
         style="stroke-width:0.26458332"
         id="path32" />
      <path
         d="m 64.688179,283.29241 v 1.91007 h 0.818602 l -0.16051,0.78651 h -0.658092 v 5.74627 q 0,0.97911 0.658092,1.10752 v 0.35312 l -1.621154,0.91491 q -0.353123,-0.14446 -0.658093,-0.46548 -0.30497,-0.33707 -0.30497,-0.62599 v -7.0143 h -0.658092 l 0.16051,-0.67415 q 0.481531,0 1.155675,-0.64204 0.690194,-0.65809 0.818603,-1.39644 z"
         style="stroke-width:0.26458332"
         id="path34" />
      <path
         d="m 70.237069,284.96172 q 0.08025,0 0.401276,0.25682 0.321021,0.24076 0.642041,0.69019 0.321021,0.43338 0.321021,0.85071 v 2.69657 q 0,0.28892 -0.850705,0.70624 -0.850705,0.41733 -1.653256,0.6902 -0.786501,0.25682 -0.850705,0.25682 0,1.23593 1.075419,1.52484 0.529684,0.12841 1.268032,0.12841 v 0.46548 q -2.63237,0.88281 -2.808931,0.88281 -0.481531,0 -0.979113,-0.67414 -0.497583,-0.6902 -0.497583,-1.60511 v -5.39315 q 0,-0.11235 1.829818,-0.7865 1.829818,-0.69019 2.102686,-0.69019 z m -0.561786,2.55211 q 0,-0.44943 -0.208664,-0.75439 -0.208663,-0.32103 -0.529684,-0.32103 -0.321021,0 -0.706245,0.24077 v 3.70779 q 1.444593,-0.40128 1.444593,-1.73351 z"
         style="stroke-width:0.26458332"
         id="path36" />
      <path
         d="m 73.877149,290.59563 q -0.401276,0 -0.690194,-0.60994 -0.288919,-0.60994 -0.288919,-1.49274 v -1.73351 q 0,-0.30497 1.685359,-1.04332 1.685358,-0.7544 1.942175,-0.7544 0.144459,0 0.256817,0.17656 0.112357,0.16051 0.176561,0.27287 0.0642,0.0963 0.192612,0.35312 0.14446,0.24077 0.240766,0.40128 0.208663,0.38522 0.529684,0.38522 v 0.32102 q -0.256817,0.11236 -0.674143,0.33707 -1.027267,0.56179 -1.107522,0.56179 -0.240765,0 -0.529684,-0.7865 -0.272868,-0.7865 -0.497582,-0.7865 -0.288919,0 -0.288919,0.48153 v 1.97428 q 0,0.64204 0.288919,0.64204 0.0642,0 0.995164,-0.41733 0.93096,-0.41732 1.123572,-0.41732 0.385225,0 0.674144,0.62599 0.30497,0.60993 0.30497,1.573 v 1.81376 q 0,0.30497 -1.845869,1.05937 -1.829818,0.73835 -2.102686,0.73835 -0.112357,0 -0.224714,-0.19261 -0.09631,-0.20867 -0.288919,-0.62599 -0.176561,-0.41733 -0.353123,-0.70625 -0.208663,-0.38522 -0.529684,-0.38522 v -0.32102 q 0.256817,-0.11236 0.690194,-0.33708 1.011216,-0.56178 1.091471,-0.56178 0.240765,0 0.593888,0.94701 0.369174,0.94701 0.593888,0.94701 0.160511,0 0.30497,-0.12841 0.144459,-0.12841 0.144459,-0.35312 v -2.00638 q 0,-0.7223 -0.401275,-0.7223 -0.128409,0 -1.011216,0.38523 -0.882807,0.38522 -0.995164,0.38522 z"
         style="stroke-width:0.26458332"
         id="path38" />
    </g>
  </g>
</svg>
